<?xml version="1.0" encoding="UTF-8"?>
<svg id="Capa_2" data-name="Capa 2" xmlns="http://www.w3.org/2000/svg" viewBox="0 0 174.15 261.08">
  <defs>
    <style>
      .cls-1 {
        fill: #f24e1e;
      }

      .cls-2 {
        fill: #a259ff;
      }

      .cls-3 {
        fill: #ff7262;
      }

      .cls-4 {
        fill: #1abcfe;
      }

      .cls-5 {
        fill: #0acf83;
      }
    </style>
  </defs>
  <g id="Capa_1-2" data-name="Capa 1">
    <g>
      <path class="cls-1" d="m39.5,87.27c-3.89-1.29-7.98-1.79-11.83-3.32C4.23,74.64-6.49,47.32,4.56,24.61,10.91,11.54,21.47,3.75,35.58.76,38.2.21,40.9,0,43.62,0c13.65.05,27.31.02,40.96.03.85,0,1.7.09,2.56.15,0,18.78,0,37.55-.01,56.33,0,10.14-.04,20.27-.06,30.41-10.47,0-20.94,0-31.41,0-5.39,0-10.78-.14-16.16.35Z"/>
      <path class="cls-2" d="m39.5,87.27c5.38-.49,10.77-.35,16.16-.35,10.47-.01,20.94,0,31.41,0l.03.08c.01,1.43.03,2.85.03,4.28.03,11.56.05,23.12.07,34.68,0,3,0,6.01,0,9.01-.02,11.88-.05,23.75-.07,35.63,0,1.14-.04,2.27-.07,3.41-15.99.02-31.99.05-47.98.07-4.09-1.09-8.28-1.71-12.22-3.44-13.61-6.01-22.23-16.2-25.52-30.66-3.14-13.87.03-26.44,9.07-37.35,7.52-9.08,17.32-14.17,29.09-15.35Z"/>
      <path class="cls-3" d="m87.07,86.91c.02-10.14.05-20.27.06-30.41.01-18.78,0-37.55.01-56.33,2.71-.05,5.42-.13,8.14-.13,11.94-.01,23.88-.11,35.81.03,9.99.11,18.9,3.27,26.76,9.65,6.49,5.26,11.2,11.71,13.89,19.49,2.02,5.87,2.85,11.96,2.18,18.33-.82,7.81-3.3,14.87-7.79,21.18-7.03,9.89-16.71,15.67-28.64,17.78-.93.16-1.82.51-2.73.77h-8.58c-.2-.39-.58-.35-.93-.35-12.72.02-25.43.05-38.15.07l-.03-.08Z"/>
      <path class="cls-5" d="m39.08,174.08c15.99-.02,31.99-.05,47.98-.07.02,15.43.67,30.9-.08,46.29-1.03,21.02-16.6,37.39-37.52,40.35-20.6,2.92-41.02-9.54-47.48-30.67-3.65-11.91-2.23-23.69,4.17-34.58,5.34-9.08,13.01-15.41,22.95-18.96,3.24-1.16,6.66-1.55,9.98-2.37Z"/>
      <path class="cls-4" d="m126.18,87.27h8.58c8.37.91,16.01,3.73,22.67,8.92,9.16,7.15,14.86,16.62,16.25,28.05,2.17,17.83-4.17,32.3-19.17,42.55-5.43,3.71-11.5,5.93-18.12,6.84-10.81,1.49-20.85-.72-29.71-6.72-9.99-6.76-16.63-16.12-18.79-28.33-.21-1.19.15-2.54-.69-3.62,0-3,0-6.01,0-9.01.72-.71.21-1.61.37-2.41,2.15-10.95,7.25-20.1,16.07-27.17,6.65-5.33,14.21-8.08,22.54-9.1Z"/>
    </g>
  </g>
</svg>