<?xml version="1.0" encoding="UTF-8"?>
<svg id="Capa_2" data-name="Capa 2" xmlns="http://www.w3.org/2000/svg" viewBox="0 0 513.7 500.74">
  <defs>
    <style>
      .cls-1 {
        fill: #99f;
      }

      .cls-2 {
        fill: #00005b;
      }
    </style>
  </defs>
  <g id="Capa_1-2" data-name="Capa 1">
    <g>
      <path class="cls-2" d="m0,418.1V82.64c1.54-.8.89-2.31,1.06-3.5,3.26-22.01,12.83-40.68,29.39-55.65C44.27,10.99,60.48,3.62,78.88.98c.71-.1,1.51-.04,1.77-.98h352.9c.33,1.04,1.24.88,2.02.99,5.99.82,11.85,2.22,17.54,4.24,14.8,5.27,27.44,13.76,37.87,25.53,6.66,7.5,11.89,15.9,15.81,25.12,2.78,6.55,4.67,13.37,5.87,20.38.13.76-.04,1.71,1.05,1.98v344.26c-1.06.3-.89,1.23-1.02,2-1.86,11.03-5.47,21.43-11.14,31.1-9.18,15.68-21.92,27.58-38.11,35.77-8.2,4.14-16.88,6.86-25.94,8.35-.77.13-1.7-.04-2,1.02H78.69c-.35-1.18-1.41-.92-2.23-1.06-20.43-3.54-37.83-12.8-51.91-28.01-13.47-14.55-21.32-31.79-23.58-51.53-.09-.79.04-1.69-.96-2.04Zm178.13-128.22c-.68-.38-.66-.81-.73-1.2-1.06-5.72-2.41-11.39-3.56-17.09-1.63-8.09-3.52-16.14-5.46-24.17-2.81-11.61-5.78-23.19-8.65-34.79-6.63-26.79-13.33-53.55-20.3-80.25-.94-3.6-1.58-4.1-5.19-4.11-12.71,0-25.41,0-38.12,0-6.6,0-13.2-.02-19.79,0-2.78.01-3.47.64-3.67,3.38-.21,2.92-.31,5.86-.46,8.79-.76,14.24-1.53,28.47-2.28,42.71-.56,10.58-1.07,21.16-1.63,31.73-.9,16.92-1.83,33.84-2.72,50.77-.58,10.98-1.09,21.97-1.67,32.96-.91,17.33-1.85,34.66-2.77,51.99-.15,2.77.15,3.09,2.87,3.26.57.04,1.14.01,1.71.01,4.4,0,8.8,0,13.2,0,7.25,0,14.5.02,21.75-.01,2.35,0,3.39-1.05,3.48-3.35.51-12.7,1.04-25.4,1.49-38.1.29-7.98.46-15.96.67-23.95.57-21.59,1.19-43.17,1.68-64.76.44-19.55.56-39.11.47-58.67,0-.78-.17-1.58.19-2.41,1.01.93,1.01,2.2,1.27,3.32,2.13,9.5,4.21,19.02,6.33,28.52,2.14,9.61,4.28,19.23,6.46,28.83,1.79,7.91,3.72,15.78,5.4,23.71.4,1.87,1.1,3.61,1.56,5.45,6.61,26.12,12.09,52.51,18.45,78.69,1.6,6.56,3.17,13.14,4.79,19.69.59,2.38,1.52,3.05,3.9,3.03.73,0,1.47,0,2.2,0,11.32,0,22.64,0,33.97,0,3.38,0,4.32-.75,5.14-3.97,1.5-5.83,2.87-11.7,4.5-17.5,8.17-29.07,15.67-58.31,23.49-87.47,2.67-9.97,5.22-19.97,7.76-29.98,1.73-6.82,3.42-13.65,5.13-20.47,2.45-9.79,4.61-19.65,6.88-29.49.14-.61.17-1.25.98-2.02,0,1.21.02,2.06,0,2.91-.64,23.14-.26,46.28-.8,69.42-.53,22.41.05,44.82.26,67.23.15,15.89.24,31.78.36,47.67.03,3.6.26,3.83,3.95,3.83,6.03,0,12.05,0,18.08,0,7.33,0,14.66.01,21.99,0,2.86,0,3.54-.76,3.47-3.67,0-.24-.02-.49-.03-.73-.29-7.9-.58-15.8-.87-23.7-.82-22.64-1.62-45.28-2.44-67.91-.74-20.44-1.52-40.88-2.25-61.31-.58-16.12-1.12-32.25-1.68-48.37-.19-5.54-.36-11.08-.61-16.61-.11-2.45-.91-3.18-3.35-3.18-19.3-.01-38.61-.01-57.91,0-2.35,0-3.52,1.02-3.98,3.36-.33,1.64-.55,3.3-.96,4.91-1.09,4.23-2.21,8.45-3.42,12.65-3.31,11.38-6.17,22.89-9.68,34.22-1.4,4.54-2.79,9.15-3.67,13.86-.26,1.39-1.02,2.69-1.31,4.09-1.59,7.54-4.14,14.81-6.1,22.24-.69,2.61-1.46,5.21-2.41,7.73-.82,2.18-1.09,4.47-1.7,6.69-3.21,11.73-6.74,23.37-9.75,35.16-1.38,5.4-2.74,10.81-3.87,16.42Zm224.51-10.95c15.4-.16,34.06.42,52.67-1.2,2.78-.24,3.81-1.08,4.07-3.83.31-3.32.68-6.65.84-9.98.37-7.9.59-15.79-.47-23.67-1.33-9.86-4.57-19.09-9.14-27.85-4.05-7.77-9.46-14.54-16.17-20.22-7.18-6.09-15.63-9.67-24.55-12.2-5.77-1.63-11.7-2.4-17.72-2.62-13.67-.51-26.85,1.51-39.37,7.22-7.25,3.3-13.67,7.92-19.58,13.13-2.47,2.18-4.73,4.77-6.84,7.41-4.99,6.23-9.27,12.87-12.51,20.17-.88,1.97-1.81,3.93-2.49,5.97-2.19,6.58-4.02,13.24-5.05,20.13-2.14,14.25-1.68,28.39,1.64,42.41,1.32,5.56,2.9,11.02,5.31,16.26,8.56,18.61,22.27,31.84,41.19,39.5,5.59,2.26,11.55,3.56,17.56,4.51,10.27,1.62,20.6,1.76,30.94,1.33,6.65-.27,13.28-1.03,19.81-2.42,6.98-1.48,13.74-3.69,20.34-6.45,2.92-1.22,4.06-3.1,4.03-6.16-.08-10.18-.03-20.37-.03-30.56,0-.65,0-1.31-.11-1.95-.16-.97-.57-1.4-1.68-.9-3.16,1.44-6.43,2.6-9.76,3.55-14.1,4.02-28.46,5.29-43.02,3.83-6.17-.62-12.17-2-17.87-4.71-9.87-4.69-16.12-12.34-19.43-22.58-.6-1.85-1.01-3.77-1.54-5.65-.6-2.15-.41-2.43,1.72-2.47.49-.01.98,0,1.47,0,14.17,0,28.34,0,45.75,0Z"/>
      <path class="cls-1" d="m178.13,289.88c1.13-5.61,2.49-11.02,3.87-16.42,3.01-11.79,6.54-23.43,9.75-35.16.61-2.22.88-4.51,1.7-6.69.95-2.52,1.72-5.12,2.41-7.73,1.96-7.43,4.51-14.71,6.1-22.24.29-1.39,1.05-2.69,1.31-4.09.88-4.72,2.27-9.33,3.67-13.86,3.5-11.34,6.37-22.84,9.68-34.22,1.22-4.19,2.33-8.42,3.42-12.65.42-1.61.64-3.27.96-4.91.47-2.34,1.63-3.36,3.98-3.36,19.3-.01,38.61-.01,57.91,0,2.43,0,3.23.73,3.35,3.18.25,5.53.42,11.07.61,16.61.56,16.12,1.1,32.25,1.68,48.37.74,20.44,1.51,40.88,2.25,61.31.82,22.64,1.63,45.27,2.44,67.91.28,7.9.58,15.8.87,23.7,0,.24.03.49.03.73.07,2.91-.61,3.67-3.47,3.67-7.33.02-14.66,0-21.99,0-6.03,0-12.05,0-18.08,0-3.68,0-3.92-.23-3.95-3.83-.12-15.89-.21-31.78-.36-47.67-.21-22.41-.78-44.82-.26-67.23.54-23.14.17-46.29.8-69.42.02-.85,0-1.71,0-2.91-.8.76-.84,1.41-.98,2.02-2.28,9.83-4.43,19.7-6.88,29.49-1.71,6.82-3.4,13.65-5.13,20.47-2.53,10.01-5.08,20.01-7.76,29.98-7.82,29.16-15.32,58.41-23.49,87.47-1.63,5.8-3,11.67-4.5,17.5-.83,3.22-1.76,3.96-5.14,3.97-11.32.02-22.64,0-33.97,0-.73,0-1.47,0-2.2,0-2.38.02-3.31-.65-3.9-3.03-1.62-6.56-3.19-13.13-4.79-19.69-6.36-26.18-11.83-52.57-18.45-78.69-.46-1.83-1.17-3.57-1.56-5.45-1.68-7.93-3.6-15.81-5.4-23.71-2.18-9.61-4.32-19.22-6.46-28.83-2.12-9.51-4.19-19.02-6.33-28.52-.25-1.13-.26-2.4-1.27-3.32-.36.83-.19,1.63-.19,2.41.08,19.56-.03,39.12-.47,58.67-.49,21.59-1.11,43.17-1.68,64.76-.21,7.98-.38,15.97-.67,23.95-.46,12.7-.99,25.4-1.49,38.1-.09,2.3-1.13,3.34-3.48,3.35-7.25.03-14.5.01-21.75.01-4.4,0-8.8,0-13.2,0-.57,0-1.14.02-1.71-.01-2.72-.17-3.02-.49-2.87-3.26.92-17.33,1.86-34.66,2.77-51.99.58-10.98,1.09-21.97,1.67-32.96.89-16.92,1.82-33.84,2.72-50.77.56-10.58,1.07-21.16,1.63-31.73.75-14.24,1.52-28.48,2.28-42.71.16-2.93.25-5.86.46-8.79.2-2.74.89-3.37,3.67-3.38,6.6-.03,13.2,0,19.79,0,12.71,0,25.41,0,38.12,0,3.62,0,4.26.51,5.19,4.11,6.96,26.7,13.67,53.47,20.3,80.25,2.87,11.6,5.84,23.17,8.65,34.79,1.94,8.03,3.83,16.07,5.46,24.17,1.15,5.71,2.51,11.37,3.56,17.09.07.38.05.82.73,1.2Z"/>
      <path class="cls-1" d="m402.64,278.93c-17.41,0-31.58,0-45.75,0-.49,0-.98,0-1.47,0-2.13.05-2.32.33-1.72,2.47.52,1.88.94,3.79,1.54,5.65,3.32,10.24,9.57,17.89,19.43,22.58,5.7,2.71,11.7,4.09,17.87,4.71,14.57,1.46,28.93.2,43.02-3.83,3.33-.95,6.61-2.11,9.76-3.55,1.11-.51,1.52-.08,1.68.9.11.64.11,1.3.11,1.95,0,10.19-.04,20.37.03,30.56.02,3.06-1.11,4.93-4.03,6.16-6.6,2.76-13.36,4.97-20.34,6.45-6.53,1.39-13.15,2.14-19.81,2.42-10.34.43-20.67.28-30.94-1.33-6.01-.95-11.96-2.24-17.56-4.51-18.93-7.66-32.64-20.89-41.19-39.5-2.41-5.24-4-10.7-5.31-16.26-3.32-14.02-3.78-28.16-1.64-42.41,1.03-6.88,2.86-13.55,5.05-20.13.68-2.04,1.62-4,2.49-5.97,3.24-7.3,7.53-13.94,12.51-20.17,2.11-2.64,4.37-5.24,6.84-7.41,5.91-5.21,12.33-9.83,19.58-13.13,12.52-5.7,25.7-7.73,39.37-7.22,6.01.23,11.95.99,17.72,2.62,8.92,2.53,17.37,6.11,24.55,12.2,6.71,5.69,12.11,12.45,16.17,20.22,4.57,8.76,7.81,18,9.14,27.85,1.06,7.88.85,15.77.47,23.67-.16,3.33-.52,6.66-.84,9.98-.26,2.75-1.29,3.59-4.07,3.83-18.61,1.62-37.27,1.04-52.67,1.2Zm-49.23-33.84c.95.44,1.77.3,2.57.3,15.88,0,31.77.02,47.65-.03,3.34-.01,6.67-.22,10-.43,1.73-.11,1.74-.2,1.78-1.91.14-4.93-1.23-9.52-3.69-13.7-4.47-7.59-10.93-12.36-19.86-13.79-5.15-.83-10.18-.8-15.15.5-8.28,2.18-14.42,7.22-18.57,14.69-.67,1.21-1.26,2.47-1.85,3.72-1.61,3.38-2.28,7-2.89,10.65Z"/>
      <path class="cls-2" d="m353.41,245.09c.61-3.65,1.28-7.27,2.89-10.65.6-1.25,1.18-2.51,1.85-3.72,4.15-7.47,10.3-12.51,18.57-14.69,4.97-1.31,10-1.33,15.15-.5,8.93,1.44,15.38,6.2,19.86,13.79,2.46,4.17,3.83,8.76,3.69,13.7-.05,1.71-.05,1.8-1.78,1.91-3.33.21-6.67.42-10,.43-15.88.05-31.77.03-47.65.03-.8,0-1.62.14-2.57-.3Z"/>
    </g>
  </g>
</svg>