<?xml version="1.0" encoding="UTF-8"?>
<svg id="Capa_2" data-name="Capa 2" xmlns="http://www.w3.org/2000/svg" viewBox="0 0 244.18 262.58">
  <defs>
    <style>
      .cls-1 {
        fill: #fff;
      }
    </style>
  </defs>
  <g id="Capa_1-2" data-name="Capa 1">
    <path class="cls-1" d="m11.13,202.17c13.71-7.59,26.39-14.82,39.33-21.55,1.91-.99,5.42-.33,7.55.79,11.46,6.04,22.71,12.49,34.06,18.74,2.19,1.21,4.52,2.16,7.48,3.56.55-2.33,1.2-3.81,1.21-5.29.07-17.45.2-34.9-.13-52.34-.05-2.54-1.8-6.16-3.87-7.36-16.1-9.33-32.45-18.21-48.77-27.16-1.14-.63-2.56-.74-5.26-1.47,0,6.74,0,12.72,0,18.71,0,9.2.16,18.4-.1,27.59-.06,2.02-.99,4.98-2.48,5.85-12.79,7.4-25.81,14.42-39.59,22.01-.22-2.81-.5-4.77-.5-6.74-.04-36.78-.12-73.57.1-110.35.02-2.72,1.57-6.74,3.67-7.93C38.27,39.75,72.92,20.64,107.54,1.47c.78-.43,1.67-.68,3.62-1.47,0,15.41.15,30.12-.21,44.81-.04,1.59-2.75,3.53-4.63,4.6-11.25,6.43-22.62,12.64-33.93,18.95-1.98,1.11-3.88,2.35-7.16,5.8,1.48.63,3.02,1.15,4.42,1.92,15.88,8.76,31.67,17.69,47.68,26.22,2.31,1.23,6.24,1.72,8.38.59,16.66-8.8,33.06-18.09,49.54-27.22,1.03-.57,2.09-1.08,4.37-2.26-3.79-2.47-5.79-3.94-7.93-5.13-11.31-6.32-22.74-12.43-33.93-18.95-2.09-1.22-4.62-3.94-4.68-6.04-.41-14.11-.22-28.23-.22-43.2,2.45,1.04,4.17,1.59,5.72,2.45,33.6,18.58,67.23,37.12,100.69,55.96,2.29,1.29,4.69,4.83,4.7,7.34.29,38.2.19,76.4.16,114.6,0,.91-.25,1.83-.54,3.79-11.5-6.33-22.33-12.84-33.66-18.34-6.62-3.21-9.02-7.24-8.66-14.62.66-13.36.19-26.77.19-41.44-2.99,1.07-4.97,1.5-6.67,2.43-15.48,8.52-30.98,17-46.27,25.84-2.25,1.3-4.83,4.42-4.88,6.74-.39,18.38-.21,36.78-.15,55.17,0,.85.56,1.7,1.17,3.45,2.53-1.08,4.87-1.87,6.99-3.03,11.57-6.33,23.04-12.86,34.69-19.04,2-1.06,5.26-1.92,6.97-1.02,13.08,6.87,25.92,14.19,39.87,21.95-3,1.83-5.07,3.19-7.23,4.38-32.96,18.28-65.89,36.61-98.97,54.66-2.39,1.3-6.6,1.71-8.85.49-34.76-18.91-69.34-38.17-103.94-57.36-.77-.43-1.42-1.07-3.07-2.32Z"/>
  </g>
</svg>